<svg width="32" height="32" viewBox="0 0 32 32" fill="none" xmlns="http://www.w3.org/2000/svg">
<path fill-rule="evenodd" clip-rule="evenodd" d="M20.1591 5.43721V3.68468C20.1591 3.5005 20.086 3.32387 19.9559 3.19363C19.8258 3.06339 19.6493 2.99023 19.4653 2.99023L16.4789 2.99026C16.0958 2.99027 15.7851 3.30118 15.7851 3.68471V5.37457L14.7635 5.85385L13.4333 4.18422C13.2118 3.90616 12.8162 3.84054 12.5168 4.03222L10.1768 5.53078C10.0113 5.6368 9.89837 5.80815 9.86626 6.00218C9.83416 6.19628 9.88572 6.39489 10.0083 6.54871L11.3109 8.18371C11.2459 8.26253 11.1774 8.34947 11.1084 8.44308C10.9745 8.62475 10.8187 8.85787 10.6869 9.12364C10.1732 8.65725 9.56466 8.27135 8.99053 7.96412C8.35906 7.62635 7.74237 7.36961 7.28601 7.1978C7.057 7.11162 6.66609 6.97891 6.53134 6.93447C6.34336 6.87912 6.1205 6.90315 5.95331 7.00544C5.78613 7.10773 5.66985 7.27655 5.63338 7.46926L5.01213 10.7517C4.97724 10.936 5.01836 11.1266 5.12613 11.2802C5.23389 11.4337 5.39914 11.537 5.58424 11.5667C6.34353 11.6882 6.91716 12.0663 7.31 12.4291C7.50559 12.6098 7.65114 12.7821 7.74608 12.9067C7.75921 12.924 7.77324 12.9432 7.78712 12.9627C7.09357 14.0215 6.82538 15.2675 6.86849 16.5504C6.92686 18.2877 7.55276 20.1252 8.49174 21.7878C9.43266 23.4538 10.712 24.9874 12.1294 26.1117C13.537 27.2283 15.1446 27.9902 16.7328 27.9902C18.3171 27.9902 19.9659 27.2322 21.426 26.1101C22.8971 24.9794 24.2444 23.4286 25.2318 21.7216C27.1722 18.3676 27.8805 14.0547 24.7438 11.2777C24.6138 11.1627 24.4932 11.0656 24.3778 10.9811C24.8803 10.9746 25.4575 10.9849 26.1296 11.0081L26.8276 11.0322L27 6.34558L26.3101 6.32176C24.5469 6.26086 22.9277 6.33829 21.4578 6.67635C21.092 6.20169 20.6954 5.84572 20.3868 5.60573C20.3046 5.54184 20.2281 5.48566 20.1591 5.43721ZM21.6522 11.4229C21.7727 11.367 21.8985 11.3172 22.0316 11.273C22.375 11.4688 22.6492 11.6029 22.8685 11.7102C22.9416 11.746 23.0087 11.7788 23.0701 11.8099C23.3316 11.9422 23.5361 12.0628 23.8244 12.318C26.1903 14.4127 25.8689 17.8486 24.031 21.0257C23.1293 22.5843 21.9002 23.9945 20.5808 25.0085C19.2504 26.031 17.8945 26.6013 16.7328 26.6013C15.5752 26.6013 14.2653 26.0338 12.9913 25.0232C11.727 24.0204 10.5609 22.6291 9.69982 21.1043C8.8368 19.5762 8.30426 17.9571 8.25538 16.5036C8.20698 15.0639 8.62966 13.8214 9.64131 12.9258C10.1582 12.4681 11.0628 12.2816 12.2256 12.3482C12.9893 12.392 13.7922 12.5411 14.5309 12.7308L14.5291 12.7345L15.3156 12.9647C16.1458 13.2079 17.109 13.5936 17.7421 13.8617L16.7398 16.0319L14.1706 17.1948L11.3914 16.5395L11.0732 17.8913L13.3007 18.4166L12.5699 20.2655L13.8604 20.7764L14.7831 18.4418L16.2879 17.7607C16.2142 18.5667 16.3422 19.3833 16.667 20.1346L16.9059 20.6872L17.0921 23.4177L18.4765 23.3232L18.3273 21.1344L20.623 20.8677L20.463 19.4881L18.0221 19.7716L17.9406 19.5831C17.6253 18.8537 17.5695 18.0381 17.7826 17.2725L17.9145 16.7985L19.4128 13.5542C19.4847 13.4802 19.5494 13.3984 19.6052 13.3097C20.2386 12.302 20.9082 11.7675 21.6522 11.4229ZM16.5154 11.8915C16.9715 11.0951 17.4608 10.4614 18.0164 9.9403C18.1295 9.83676 18.2459 9.73489 18.3652 9.63482C18.862 9.22885 19.4116 8.89704 20.0343 8.60857C21.5417 7.91023 23.3514 7.66621 25.5608 7.69211L25.4906 9.60107C23.534 9.55586 22.1941 9.64711 21.076 10.1651C20.0747 10.6289 19.2014 11.352 18.4303 12.5789C18.4194 12.5962 18.4034 12.6078 18.388 12.613C18.3741 12.6177 18.3676 12.6154 18.3649 12.6142C17.9012 12.4167 17.2158 12.1361 16.5154 11.8915ZM9.61725 11.3277C9.50278 11.3764 9.39113 11.4307 9.28278 11.4907L8.87475 11.6896C8.79287 11.7343 8.7169 11.7766 8.64712 11.8161L8.25132 11.4085C7.8402 11.0286 7.25665 10.613 6.49813 10.3636L6.84772 8.51669C7.26077 8.67398 7.79654 8.90009 8.33651 9.18898C8.90287 9.49197 9.44764 9.85023 9.86014 10.2512C10.1016 10.4859 10.2808 10.7183 10.3983 10.947L9.61725 11.3277ZM11.8739 10.9467C12.0186 10.9483 12.1626 10.9534 12.305 10.9616C12.4327 10.9689 12.5609 10.9788 12.6893 10.9909C13.567 11.0675 14.468 11.2468 15.1816 11.4168C15.6795 10.2766 16.6028 9.29197 17.5337 8.52044C18.3097 7.87739 19.1366 7.34496 19.8371 6.95766C19.7307 6.85989 19.6285 6.77482 19.5355 6.70253C19.4091 6.60426 19.1305 6.42426 19.1305 6.42426C19.1305 6.42426 18.7715 6.06968 18.7715 5.816V4.37912L17.1728 4.37914V5.816C17.1728 6.08537 17.0172 6.33051 16.7734 6.44482L14.8568 7.34391C14.5661 7.4803 14.2199 7.39926 14.0198 7.14808L12.7382 5.53938L11.5733 6.2853L12.7648 7.78072C12.9892 8.06239 12.9611 8.46898 12.7002 8.71711L12.5599 8.8626C12.5599 8.8626 12.3463 9.10315 12.2252 9.2676C11.9591 9.62857 11.7912 9.9769 11.784 10.2179C11.7797 10.3601 11.7824 10.5546 11.8292 10.7884C11.8456 10.8404 11.8605 10.8933 11.8739 10.9467Z" fill="#0B0C0F"/>
</svg>
